<svg xmlns="http://www.w3.org/2000/svg" width="460" height="542" viewBox="0 0 460 542">
<g>
<path d="M 68.99 513.15 L 66.14 510.30 L 66.04 475.80 C65.98,455.24 66.34,440.25 66.92,438.70 C68.31,435.06 72.35,432.62 75.63,433.44 C79.83,434.50 82.36,438.31 91.96,458.00 C107.52,489.94 108.37,491.36 110.02,488.00 C111.80,484.36 124.17,458.53 128.82,448.74 C131.63,442.82 135.05,436.86 136.42,435.49 C139.58,432.33 143.41,432.31 146.55,435.45 L 149.00 437.91 L 149.00 474.88 L 149.00 511.85 L 146.37 513.93 C142.90,516.65 139.75,516.55 136.31,513.59 L 133.50 511.18 L 133.00 491.84 L 132.50 472.50 L 127.66 482.50 C113.32,512.12 111.87,514.10 105.80,512.38 C102.76,511.52 101.79,510.05 93.50,493.73 C88.55,483.99 84.05,475.59 83.50,475.06 C82.83,474.42 82.50,480.31 82.50,492.64 L 82.50 511.19 L 79.50 513.59 C75.54,516.76 72.47,516.63 68.99,513.15 ZM 165.59 512.92 L 163.00 509.85 L 163.00 475.37 C163.00,437.06 163.16,436.03 169.23,434.16 C171.03,433.61 182.80,433.16 195.40,433.15 L 218.30 433.14 L 221.07 435.92 L 223.85 438.70 L 226.45 436.10 L 229.04 433.50 L 257.42 433.21 L 285.79 432.91 L 288.52 435.26 C291.64,437.95 292.08,441.71 289.69,445.36 C287.78,448.26 285.42,448.77 274.47,448.62 L 266.00 448.50 L 266.00 480.18 L 266.00 511.86 L 263.10 513.93 C259.20,516.71 255.85,516.54 252.92,513.42 L 250.50 510.84 L 250.00 479.67 L 249.50 448.50 L 239.17 448.50 C229.13,448.50 228.76,448.42 226.46,445.75 L 224.09 443.00 L 221.71 445.38 C219.61,447.49 218.06,447.84 208.29,448.48 C202.22,448.88 193.26,449.04 188.38,448.85 L 179.50 448.50 L 179.50 457.50 L 179.50 466.50 L 192.50 466.74 C208.52,467.05 209.58,467.29 211.53,471.06 C213.41,474.70 212.78,477.24 209.31,479.97 C207.00,481.79 205.28,482.00 192.83,482.00 L 178.92 482.00 L 179.21 491.25 L 179.50 500.50 L 199.10 500.50 C220.18,500.50 221.18,500.73 223.15,505.89 C224.39,509.16 222.62,513.40 219.39,514.87 C217.76,515.61 208.52,516.00 192.54,516.00 L 168.18 516.00 L 165.59 512.92 ZM 286.24 514.99 C282.80,513.57 281.39,509.63 282.73,505.19 C283.74,501.82 288.70,489.53 296.93,470.00 C298.67,465.88 300.78,460.48 301.62,458.00 C302.46,455.52 305.11,449.43 307.50,444.46 C312.33,434.41 315.09,431.96 319.78,433.57 C322.92,434.65 328.45,445.13 335.55,463.50 C337.89,469.55 341.46,478.33 343.49,483.00 C345.51,487.67 347.57,492.84 348.08,494.49 C348.58,496.13 349.72,499.00 350.61,500.88 C351.50,502.75 352.45,505.95 352.72,507.98 C353.15,511.13 352.81,512.00 350.48,513.84 C348.97,515.03 346.73,516.00 345.50,516.00 C342.18,516.00 338.29,512.45 337.00,508.23 C336.37,506.18 335.38,503.26 334.81,501.75 L 333.76 499.00 L 317.62 499.00 L 301.48 499.00 L 299.19 505.39 C297.93,508.91 296.13,512.47 295.20,513.31 C292.90,515.38 288.98,516.12 286.24,514.99 ZM 326.99 484.25 C326.98,483.22 320.10,465.06 318.80,462.62 C317.80,460.75 317.66,460.80 316.21,463.57 C314.40,467.01 308.00,483.14 308.00,484.24 C308.00,484.66 312.27,485.00 317.50,485.00 C322.73,485.00 327.00,484.66 326.99,484.25 ZM 361.45 513.55 L 359.00 511.09 L 359.01 475.80 C359.02,456.38 359.30,439.47 359.64,438.21 C360.27,435.87 364.61,433.00 367.53,433.00 C368.42,433.00 370.47,434.32 372.08,435.92 L 375.00 438.85 L 375.00 469.42 L 375.00 500.00 L 392.83 500.00 C410.53,500.00 410.67,500.02 412.99,502.49 C416.27,505.98 416.11,510.65 412.61,513.66 C409.93,515.97 409.57,516.00 386.90,516.00 L 363.91 516.00 L 361.45 513.55 ZM 19.99 208.75 C19.98,105.21 19.70,19.49 19.37,18.25 L 18.77 16.00 L 229.38 16.00 L 440.00 16.00 L 440.00 206.50 L 440.00 397.00 L 230.00 397.00 L 20.00 397.00 L 19.99 208.75 ZM 421.43 380.39 C422.85,379.84 423.00,362.91 423.00,205.89 L 423.00 32.00 L 229.50 32.00 L 36.00 32.00 L 36.00 205.92 C36.00,344.12 36.26,379.94 37.25,380.33 C39.05,381.06 419.55,381.11 421.43,380.39 ZM 254.05 356.57 C249.32,353.96 248.72,347.39 252.66,341.48 C254.12,339.29 257.38,335.24 259.91,332.47 C262.43,329.71 265.96,325.43 267.74,322.97 C269.53,320.51 273.01,316.02 275.49,313.00 C277.97,309.98 282.56,304.12 285.70,300.00 C288.83,295.88 291.66,292.27 291.98,292.00 C292.29,291.73 295.40,287.90 298.87,283.50 C302.34,279.10 306.48,273.92 308.07,272.00 C328.82,246.80 336.00,237.61 336.00,236.28 C336.00,235.26 327.73,235.00 295.61,235.00 C249.44,235.00 251.24,235.33 250.28,226.76 C249.80,222.55 250.05,221.80 252.80,219.05 L 255.85 216.00 L 306.46 216.00 C360.37,216.00 362.42,216.17 364.92,220.85 C367.06,224.85 366.20,229.57 362.49,234.16 C360.56,236.54 358.65,238.95 358.24,239.50 C357.30,240.77 349.02,251.26 342.50,259.44 C339.75,262.90 332.92,271.52 327.31,278.61 C321.71,285.70 316.31,292.40 315.30,293.50 C314.30,294.60 312.64,296.81 311.61,298.41 C310.58,300.02 308.03,303.19 305.93,305.46 C303.84,307.73 300.63,311.69 298.81,314.26 C296.99,316.83 292.01,323.21 287.75,328.44 C283.49,333.67 280.00,338.19 280.00,338.48 C280.00,338.76 298.03,339.00 320.08,339.00 L 360.15 339.00 L 363.08 341.92 C367.11,345.96 367.11,351.04 363.08,355.08 L 360.15 358.00 L 308.33 357.96 C266.62,357.94 256.02,357.66 254.05,356.57 ZM 206.16 301.49 C193.80,299.25 179.86,293.24 172.05,286.78 C169.55,284.72 166.57,282.23 165.44,281.26 C162.76,278.97 152.94,266.50 150.26,262.00 C146.44,255.59 141.23,241.59 139.96,234.33 C137.45,219.99 140.48,196.54 145.58,190.92 C148.60,187.58 155.62,189.05 158.02,193.53 C159.32,195.97 159.21,197.08 156.51,209.00 C154.55,217.66 154.94,226.29 157.85,238.00 C162.40,256.32 174.31,270.93 192.14,280.04 C197.82,282.94 214.83,287.00 221.30,287.00 C226.06,287.00 242.62,283.50 247.42,281.48 C258.61,276.77 273.80,263.40 278.06,254.50 C282.01,246.24 284.74,244.58 292.81,245.56 C295.94,245.94 298.79,246.41 299.14,246.62 C299.77,246.98 296.39,253.96 291.26,262.92 C285.63,272.75 272.14,286.21 261.00,293.10 C256.64,295.80 245.06,300.02 237.84,301.53 C229.40,303.31 216.10,303.29 206.16,301.49 ZM 141.50 289.51 C127.81,286.52 118.21,281.48 109.96,272.95 C102.63,265.38 97.28,255.59 94.01,243.79 C91.02,233.02 92.96,229.00 101.15,229.00 C107.60,229.00 109.39,230.93 111.00,239.61 C114.28,257.32 125.17,268.19 143.86,272.41 C152.90,274.45 154.50,275.90 154.50,282.00 C154.50,289.64 151.10,291.61 141.50,289.51 ZM 200.69 232.21 C199.80,231.22 198.54,227.96 197.90,224.96 C195.07,211.66 188.62,203.44 172.58,192.66 C167.12,189.00 162.29,186.00 161.84,186.00 C161.39,186.00 157.89,183.99 154.07,181.54 C150.24,179.09 144.50,175.71 141.31,174.03 C129.58,167.87 117.41,159.66 113.84,155.50 C113.37,154.95 111.44,152.75 109.54,150.61 C104.88,145.33 101.74,138.29 99.14,127.24 C97.28,119.32 97.11,117.05 97.99,111.57 C101.57,89.18 115.30,71.28 134.36,64.16 C149.39,58.55 158.43,57.90 171.82,61.46 C185.91,65.21 201.26,77.24 208.36,90.10 C211.86,96.43 216.00,109.75 216.00,114.66 C216.00,118.41 212.62,121.00 207.72,121.00 C201.55,121.00 199.35,119.03 197.96,112.24 C195.67,101.17 192.29,94.51 186.02,88.76 C182.83,85.83 177.81,82.10 174.86,80.47 C169.75,77.64 168.94,77.50 157.45,77.50 C145.80,77.50 145.19,77.61 138.91,80.80 C130.37,85.13 124.14,91.33 119.38,100.25 C115.60,107.30 115.50,107.77 115.54,117.50 C115.57,125.53 115.99,128.39 117.68,132.00 C122.62,142.54 134.26,151.81 158.50,164.52 C163.45,167.12 168.18,169.83 169.00,170.54 C169.82,171.26 172.98,173.07 176.00,174.57 C179.02,176.07 185.20,180.17 189.72,183.68 C203.22,194.16 210.94,205.24 214.37,219.06 C216.39,227.21 216.40,228.98 214.44,231.78 C213.17,233.60 211.93,234.00 207.60,234.00 C203.79,234.00 201.86,233.50 200.69,232.21 ZM 291.03 175.72 C289.67,175.03 287.21,172.45 285.57,169.98 C276.51,156.40 260.07,144.88 244.41,141.15 C221.87,135.78 195.51,143.93 181.59,160.59 C178.18,164.67 177.39,165.13 174.73,164.60 C169.79,163.61 165.00,160.13 165.00,157.53 C165.00,153.78 171.53,146.60 183.50,137.21 C185.64,135.54 197.68,129.28 201.00,128.12 C216.84,122.58 244.87,122.99 260.46,128.97 C264.68,130.59 274.61,136.68 280.69,141.37 C290.34,148.82 304.00,167.56 304.00,173.35 C304.00,174.89 299.11,177.01 295.60,176.99 C294.45,176.98 292.39,176.41 291.03,175.72 Z" fill="rgba(0,0,0,1)"/>
</g>
</svg>